<svg xmlns="http://www.w3.org/2000/svg" xmlns:xlink="http://www.w3.org/1999/xlink" width="600" height="400" viewBox="0 0 2400 1600">
<defs>
  <clipPath id="clip790">
    <rect x="0" y="0" width="2400" height="1600"></rect>
  </clipPath>
</defs>
<path clip-path="url(#clip790)" d="M0 1600 L2400 1600 L2400 8.88178e-14 L0 8.88178e-14  Z" fill="#ffffff" fill-rule="evenodd" fill-opacity="1"></path>
<defs>
  <clipPath id="clip791">
    <rect x="480" y="0" width="1681" height="1600"></rect>
  </clipPath>
</defs>
<path clip-path="url(#clip790)" d="M401.284 1360.19 L2289.76 1360.19 L2289.76 186.464 L401.284 186.464  Z" fill="#ffffff" fill-rule="evenodd" fill-opacity="1"></path>
<defs>
  <clipPath id="clip792">
    <rect x="401" y="186" width="1889" height="1175"></rect>
  </clipPath>
</defs>
<polyline clip-path="url(#clip792)" style="stroke:#000000; stroke-linecap:round; stroke-linejoin:round; stroke-width:2; stroke-opacity:0.1; fill:none" points="660.299,1360.19 660.299,186.464 "></polyline>
<polyline clip-path="url(#clip792)" style="stroke:#000000; stroke-linecap:round; stroke-linejoin:round; stroke-width:2; stroke-opacity:0.1; fill:none" points="1002.91,1360.19 1002.91,186.464 "></polyline>
<polyline clip-path="url(#clip792)" style="stroke:#000000; stroke-linecap:round; stroke-linejoin:round; stroke-width:2; stroke-opacity:0.1; fill:none" points="1345.52,1360.19 1345.52,186.464 "></polyline>
<polyline clip-path="url(#clip792)" style="stroke:#000000; stroke-linecap:round; stroke-linejoin:round; stroke-width:2; stroke-opacity:0.1; fill:none" points="1688.14,1360.19 1688.14,186.464 "></polyline>
<polyline clip-path="url(#clip792)" style="stroke:#000000; stroke-linecap:round; stroke-linejoin:round; stroke-width:2; stroke-opacity:0.1; fill:none" points="2030.75,1360.19 2030.75,186.464 "></polyline>
<polyline clip-path="url(#clip790)" style="stroke:#000000; stroke-linecap:round; stroke-linejoin:round; stroke-width:4; stroke-opacity:1; fill:none" points="401.284,1360.19 2289.76,1360.19 "></polyline>
<polyline clip-path="url(#clip790)" style="stroke:#000000; stroke-linecap:round; stroke-linejoin:round; stroke-width:4; stroke-opacity:1; fill:none" points="660.299,1360.19 660.299,1341.29 "></polyline>
<polyline clip-path="url(#clip790)" style="stroke:#000000; stroke-linecap:round; stroke-linejoin:round; stroke-width:4; stroke-opacity:1; fill:none" points="1002.91,1360.19 1002.91,1341.29 "></polyline>
<polyline clip-path="url(#clip790)" style="stroke:#000000; stroke-linecap:round; stroke-linejoin:round; stroke-width:4; stroke-opacity:1; fill:none" points="1345.52,1360.19 1345.52,1341.29 "></polyline>
<polyline clip-path="url(#clip790)" style="stroke:#000000; stroke-linecap:round; stroke-linejoin:round; stroke-width:4; stroke-opacity:1; fill:none" points="1688.14,1360.19 1688.14,1341.29 "></polyline>
<polyline clip-path="url(#clip790)" style="stroke:#000000; stroke-linecap:round; stroke-linejoin:round; stroke-width:4; stroke-opacity:1; fill:none" points="2030.75,1360.19 2030.75,1341.29 "></polyline>
<path clip-path="url(#clip790)" d="M632.035 1418.65 L648.354 1418.65 L648.354 1422.59 L626.41 1422.59 L626.41 1418.65 Q629.072 1415.9 633.655 1411.27 Q638.262 1406.62 639.442 1405.27 Q641.688 1402.75 642.567 1401.01 Q643.47 1399.25 643.47 1397.56 Q643.47 1394.81 641.526 1393.07 Q639.604 1391.34 636.503 1391.34 Q634.304 1391.34 631.85 1392.1 Q629.419 1392.87 626.642 1394.42 L626.642 1389.69 Q629.466 1388.56 631.919 1387.98 Q634.373 1387.4 636.41 1387.4 Q641.78 1387.4 644.975 1390.09 Q648.169 1392.77 648.169 1397.26 Q648.169 1399.39 647.359 1401.31 Q646.572 1403.21 644.465 1405.81 Q643.887 1406.48 640.785 1409.69 Q637.683 1412.89 632.035 1418.65 Z" fill="#000000" fill-rule="nonzero" fill-opacity="1"></path><path clip-path="url(#clip790)" d="M658.169 1416.71 L663.053 1416.71 L663.053 1422.59 L658.169 1422.59 L658.169 1416.71 Z" fill="#000000" fill-rule="nonzero" fill-opacity="1"></path><path clip-path="url(#clip790)" d="M673.285 1388.03 L691.641 1388.03 L691.641 1391.96 L677.567 1391.96 L677.567 1400.44 Q678.586 1400.09 679.604 1399.93 Q680.623 1399.74 681.641 1399.74 Q687.428 1399.74 690.808 1402.91 Q694.187 1406.08 694.187 1411.5 Q694.187 1417.08 690.715 1420.18 Q687.243 1423.26 680.924 1423.26 Q678.748 1423.26 676.479 1422.89 Q674.234 1422.52 671.826 1421.78 L671.826 1417.08 Q673.91 1418.21 676.132 1418.77 Q678.354 1419.32 680.831 1419.32 Q684.836 1419.32 687.174 1417.22 Q689.512 1415.11 689.512 1411.5 Q689.512 1407.89 687.174 1405.78 Q684.836 1403.68 680.831 1403.68 Q678.956 1403.68 677.081 1404.09 Q675.229 1404.51 673.285 1405.39 L673.285 1388.03 Z" fill="#000000" fill-rule="nonzero" fill-opacity="1"></path><path clip-path="url(#clip790)" d="M970.076 1388.03 L988.432 1388.03 L988.432 1391.96 L974.358 1391.96 L974.358 1400.44 Q975.377 1400.09 976.395 1399.93 Q977.414 1399.74 978.432 1399.74 Q984.219 1399.74 987.599 1402.91 Q990.978 1406.08 990.978 1411.5 Q990.978 1417.08 987.506 1420.18 Q984.034 1423.26 977.715 1423.26 Q975.539 1423.26 973.27 1422.89 Q971.025 1422.52 968.617 1421.78 L968.617 1417.08 Q970.701 1418.21 972.923 1418.77 Q975.145 1419.32 977.622 1419.32 Q981.627 1419.32 983.965 1417.22 Q986.303 1415.11 986.303 1411.5 Q986.303 1407.89 983.965 1405.78 Q981.627 1403.68 977.622 1403.68 Q975.747 1403.68 973.872 1404.09 Q972.02 1404.51 970.076 1405.39 L970.076 1388.03 Z" fill="#000000" fill-rule="nonzero" fill-opacity="1"></path><path clip-path="url(#clip790)" d="M1000.19 1416.71 L1005.08 1416.71 L1005.08 1422.59 L1000.19 1422.59 L1000.19 1416.71 Z" fill="#000000" fill-rule="nonzero" fill-opacity="1"></path><path clip-path="url(#clip790)" d="M1025.26 1391.11 Q1021.65 1391.11 1019.82 1394.67 Q1018.02 1398.21 1018.02 1405.34 Q1018.02 1412.45 1019.82 1416.01 Q1021.65 1419.56 1025.26 1419.56 Q1028.89 1419.56 1030.7 1416.01 Q1032.53 1412.45 1032.53 1405.34 Q1032.53 1398.21 1030.7 1394.67 Q1028.89 1391.11 1025.26 1391.11 M1025.26 1387.4 Q1031.07 1387.4 1034.13 1392.01 Q1037.21 1396.59 1037.21 1405.34 Q1037.21 1414.07 1034.13 1418.68 Q1031.07 1423.26 1025.26 1423.26 Q1019.45 1423.26 1016.37 1418.68 Q1013.32 1414.07 1013.32 1405.34 Q1013.32 1396.59 1016.37 1392.01 Q1019.45 1387.4 1025.26 1387.4 Z" fill="#000000" fill-rule="nonzero" fill-opacity="1"></path><path clip-path="url(#clip790)" d="M1311.84 1388.03 L1334.07 1388.03 L1334.07 1390.02 L1321.52 1422.59 L1316.63 1422.59 L1328.44 1391.96 L1311.84 1391.96 L1311.84 1388.03 Z" fill="#000000" fill-rule="nonzero" fill-opacity="1"></path><path clip-path="url(#clip790)" d="M1343.19 1416.71 L1348.07 1416.71 L1348.07 1422.59 L1343.19 1422.59 L1343.19 1416.71 Z" fill="#000000" fill-rule="nonzero" fill-opacity="1"></path><path clip-path="url(#clip790)" d="M1358.3 1388.03 L1376.66 1388.03 L1376.66 1391.96 L1362.58 1391.96 L1362.58 1400.44 Q1363.6 1400.09 1364.62 1399.93 Q1365.64 1399.74 1366.66 1399.74 Q1372.44 1399.74 1375.82 1402.91 Q1379.2 1406.08 1379.2 1411.5 Q1379.2 1417.08 1375.73 1420.18 Q1372.26 1423.26 1365.94 1423.26 Q1363.76 1423.26 1361.5 1422.89 Q1359.25 1422.52 1356.84 1421.78 L1356.84 1417.08 Q1358.93 1418.21 1361.15 1418.77 Q1363.37 1419.32 1365.85 1419.32 Q1369.85 1419.32 1372.19 1417.22 Q1374.53 1415.11 1374.53 1411.5 Q1374.53 1407.89 1372.19 1405.78 Q1369.85 1403.68 1365.85 1403.68 Q1363.97 1403.68 1362.1 1404.09 Q1360.25 1404.51 1358.3 1405.39 L1358.3 1388.03 Z" fill="#000000" fill-rule="nonzero" fill-opacity="1"></path><path clip-path="url(#clip790)" d="M1640.21 1418.65 L1647.85 1418.65 L1647.85 1392.29 L1639.54 1393.95 L1639.54 1389.69 L1647.8 1388.03 L1652.48 1388.03 L1652.48 1418.65 L1660.12 1418.65 L1660.12 1422.59 L1640.21 1422.59 L1640.21 1418.65 Z" fill="#000000" fill-rule="nonzero" fill-opacity="1"></path><path clip-path="url(#clip790)" d="M1679.56 1391.11 Q1675.95 1391.11 1674.12 1394.67 Q1672.31 1398.21 1672.31 1405.34 Q1672.31 1412.45 1674.12 1416.01 Q1675.95 1419.56 1679.56 1419.56 Q1683.19 1419.56 1685 1416.01 Q1686.83 1412.45 1686.83 1405.34 Q1686.83 1398.21 1685 1394.67 Q1683.19 1391.11 1679.56 1391.11 M1679.56 1387.4 Q1685.37 1387.4 1688.43 1392.01 Q1691.5 1396.59 1691.5 1405.34 Q1691.5 1414.07 1688.43 1418.68 Q1685.37 1423.26 1679.56 1423.26 Q1673.75 1423.26 1670.67 1418.68 Q1667.62 1414.07 1667.62 1405.34 Q1667.62 1396.59 1670.67 1392.01 Q1673.75 1387.4 1679.56 1387.4 Z" fill="#000000" fill-rule="nonzero" fill-opacity="1"></path><path clip-path="url(#clip790)" d="M1699.72 1416.71 L1704.61 1416.71 L1704.61 1422.59 L1699.72 1422.59 L1699.72 1416.71 Z" fill="#000000" fill-rule="nonzero" fill-opacity="1"></path><path clip-path="url(#clip790)" d="M1724.79 1391.11 Q1721.18 1391.11 1719.35 1394.67 Q1717.55 1398.21 1717.55 1405.34 Q1717.55 1412.45 1719.35 1416.01 Q1721.18 1419.56 1724.79 1419.56 Q1728.43 1419.56 1730.23 1416.01 Q1732.06 1412.45 1732.06 1405.34 Q1732.06 1398.21 1730.23 1394.67 Q1728.43 1391.11 1724.79 1391.11 M1724.79 1387.4 Q1730.6 1387.4 1733.66 1392.01 Q1736.74 1396.59 1736.74 1405.34 Q1736.74 1414.07 1733.66 1418.68 Q1730.6 1423.26 1724.79 1423.26 Q1718.98 1423.26 1715.9 1418.68 Q1712.85 1414.07 1712.85 1405.34 Q1712.85 1396.59 1715.9 1392.01 Q1718.98 1387.4 1724.79 1387.4 Z" fill="#000000" fill-rule="nonzero" fill-opacity="1"></path><path clip-path="url(#clip790)" d="M1983.32 1418.65 L1990.96 1418.65 L1990.96 1392.29 L1982.65 1393.95 L1982.65 1389.69 L1990.91 1388.03 L1995.59 1388.03 L1995.59 1418.65 L2003.23 1418.65 L2003.23 1422.59 L1983.32 1422.59 L1983.32 1418.65 Z" fill="#000000" fill-rule="nonzero" fill-opacity="1"></path><path clip-path="url(#clip790)" d="M2016.7 1418.65 L2033.02 1418.65 L2033.02 1422.59 L2011.07 1422.59 L2011.07 1418.65 Q2013.73 1415.9 2018.32 1411.27 Q2022.92 1406.62 2024.11 1405.27 Q2026.35 1402.75 2027.23 1401.01 Q2028.13 1399.25 2028.13 1397.56 Q2028.13 1394.81 2026.19 1393.07 Q2024.27 1391.34 2021.17 1391.34 Q2018.97 1391.34 2016.51 1392.1 Q2014.08 1392.87 2011.3 1394.42 L2011.3 1389.69 Q2014.13 1388.56 2016.58 1387.98 Q2019.04 1387.4 2021.07 1387.4 Q2026.44 1387.4 2029.64 1390.09 Q2032.83 1392.77 2032.83 1397.26 Q2032.83 1399.39 2032.02 1401.31 Q2031.23 1403.21 2029.13 1405.81 Q2028.55 1406.48 2025.45 1409.69 Q2022.35 1412.89 2016.7 1418.65 Z" fill="#000000" fill-rule="nonzero" fill-opacity="1"></path><path clip-path="url(#clip790)" d="M2042.83 1416.71 L2047.72 1416.71 L2047.72 1422.59 L2042.83 1422.59 L2042.83 1416.71 Z" fill="#000000" fill-rule="nonzero" fill-opacity="1"></path><path clip-path="url(#clip790)" d="M2057.95 1388.03 L2076.3 1388.03 L2076.3 1391.96 L2062.23 1391.96 L2062.23 1400.44 Q2063.25 1400.09 2064.27 1399.93 Q2065.29 1399.74 2066.3 1399.74 Q2072.09 1399.74 2075.47 1402.91 Q2078.85 1406.08 2078.85 1411.5 Q2078.85 1417.08 2075.38 1420.18 Q2071.91 1423.26 2065.59 1423.26 Q2063.41 1423.26 2061.14 1422.89 Q2058.9 1422.52 2056.49 1421.78 L2056.49 1417.08 Q2058.57 1418.21 2060.79 1418.77 Q2063.02 1419.32 2065.49 1419.32 Q2069.5 1419.32 2071.84 1417.22 Q2074.17 1415.11 2074.17 1411.5 Q2074.17 1407.89 2071.84 1405.78 Q2069.5 1403.68 2065.49 1403.68 Q2063.62 1403.68 2061.74 1404.09 Q2059.89 1404.51 2057.95 1405.39 L2057.95 1388.03 Z" fill="#000000" fill-rule="nonzero" fill-opacity="1"></path><path clip-path="url(#clip790)" d="M1200.1 1457.53 L1230.15 1457.53 L1230.15 1462.94 L1206.53 1462.94 L1206.53 1477.01 L1229.16 1477.01 L1229.16 1482.42 L1206.53 1482.42 L1206.53 1499.64 L1230.72 1499.64 L1230.72 1505.05 L1200.1 1505.05 L1200.1 1457.53 Z" fill="#000000" fill-rule="nonzero" fill-opacity="1"></path><path clip-path="url(#clip790)" d="M1241.03 1455.53 L1246.89 1455.53 L1246.89 1505.05 L1241.03 1505.05 L1241.03 1455.53 Z" fill="#000000" fill-rule="nonzero" fill-opacity="1"></path><path clip-path="url(#clip790)" d="M1289.63 1485.76 L1289.63 1488.63 L1262.71 1488.63 Q1263.09 1494.68 1266.33 1497.86 Q1269.61 1501.01 1275.44 1501.01 Q1278.81 1501.01 1281.96 1500.18 Q1285.15 1499.35 1288.26 1497.7 L1288.26 1503.24 Q1285.11 1504.57 1281.8 1505.27 Q1278.49 1505.97 1275.09 1505.97 Q1266.56 1505.97 1261.56 1501.01 Q1256.59 1496.04 1256.59 1487.58 Q1256.59 1478.83 1261.31 1473.7 Q1266.05 1468.54 1274.07 1468.54 Q1281.26 1468.54 1285.43 1473.19 Q1289.63 1477.81 1289.63 1485.76 M1283.78 1484.04 Q1283.71 1479.24 1281.07 1476.37 Q1278.46 1473.51 1274.13 1473.51 Q1269.23 1473.51 1266.27 1476.28 Q1263.34 1479.05 1262.9 1484.08 L1283.78 1484.04 Z" fill="#000000" fill-rule="nonzero" fill-opacity="1"></path><path clip-path="url(#clip790)" d="M1295.04 1469.4 L1301.25 1469.4 L1312.39 1499.32 L1323.53 1469.4 L1329.74 1469.4 L1316.37 1505.05 L1308.41 1505.05 L1295.04 1469.4 Z" fill="#000000" fill-rule="nonzero" fill-opacity="1"></path><path clip-path="url(#clip790)" d="M1354.02 1487.13 Q1346.92 1487.13 1344.19 1488.76 Q1341.45 1490.38 1341.45 1494.29 Q1341.45 1497.41 1343.49 1499.26 Q1345.56 1501.07 1349.09 1501.07 Q1353.96 1501.07 1356.89 1497.64 Q1359.85 1494.17 1359.85 1488.44 L1359.85 1487.13 L1354.02 1487.13 M1365.7 1484.71 L1365.7 1505.05 L1359.85 1505.05 L1359.85 1499.64 Q1357.84 1502.89 1354.85 1504.45 Q1351.86 1505.97 1347.53 1505.97 Q1342.05 1505.97 1338.81 1502.92 Q1335.59 1499.83 1335.59 1494.68 Q1335.59 1488.66 1339.6 1485.6 Q1343.65 1482.55 1351.63 1482.55 L1359.85 1482.55 L1359.85 1481.98 Q1359.85 1477.93 1357.17 1475.74 Q1354.53 1473.51 1349.73 1473.51 Q1346.67 1473.51 1343.77 1474.24 Q1340.88 1474.97 1338.2 1476.44 L1338.2 1471.03 Q1341.42 1469.79 1344.44 1469.18 Q1347.47 1468.54 1350.33 1468.54 Q1358.06 1468.54 1361.88 1472.55 Q1365.7 1476.57 1365.7 1484.71 Z" fill="#000000" fill-rule="nonzero" fill-opacity="1"></path><path clip-path="url(#clip790)" d="M1383.56 1459.28 L1383.56 1469.4 L1395.62 1469.4 L1395.62 1473.96 L1383.56 1473.96 L1383.56 1493.31 Q1383.56 1497.67 1384.74 1498.91 Q1385.95 1500.15 1389.61 1500.15 L1395.62 1500.15 L1395.62 1505.05 L1389.61 1505.05 Q1382.83 1505.05 1380.25 1502.54 Q1377.67 1499.99 1377.67 1493.31 L1377.67 1473.96 L1373.37 1473.96 L1373.37 1469.4 L1377.67 1469.4 L1377.67 1459.28 L1383.56 1459.28 Z" fill="#000000" fill-rule="nonzero" fill-opacity="1"></path><path clip-path="url(#clip790)" d="M1403.32 1469.4 L1409.18 1469.4 L1409.18 1505.05 L1403.32 1505.05 L1403.32 1469.4 M1403.32 1455.53 L1409.18 1455.53 L1409.18 1462.94 L1403.32 1462.94 L1403.32 1455.53 Z" fill="#000000" fill-rule="nonzero" fill-opacity="1"></path><path clip-path="url(#clip790)" d="M1435.25 1473.51 Q1430.54 1473.51 1427.8 1477.2 Q1425.06 1480.86 1425.06 1487.26 Q1425.06 1493.66 1427.77 1497.35 Q1430.51 1501.01 1435.25 1501.01 Q1439.93 1501.01 1442.66 1497.32 Q1445.4 1493.63 1445.4 1487.26 Q1445.4 1480.93 1442.66 1477.23 Q1439.93 1473.51 1435.25 1473.51 M1435.25 1468.54 Q1442.89 1468.54 1447.25 1473.51 Q1451.61 1478.47 1451.61 1487.26 Q1451.61 1496.01 1447.25 1501.01 Q1442.89 1505.97 1435.25 1505.97 Q1427.58 1505.97 1423.22 1501.01 Q1418.89 1496.01 1418.89 1487.26 Q1418.89 1478.47 1423.22 1473.51 Q1427.58 1468.54 1435.25 1468.54 Z" fill="#000000" fill-rule="nonzero" fill-opacity="1"></path><path clip-path="url(#clip790)" d="M1490.95 1483.54 L1490.95 1505.05 L1485.09 1505.05 L1485.09 1483.73 Q1485.09 1478.67 1483.12 1476.15 Q1481.15 1473.64 1477.2 1473.64 Q1472.46 1473.64 1469.72 1476.66 Q1466.98 1479.68 1466.98 1484.9 L1466.98 1505.05 L1461.09 1505.05 L1461.09 1469.4 L1466.98 1469.4 L1466.98 1474.94 Q1469.08 1471.73 1471.91 1470.14 Q1474.78 1468.54 1478.5 1468.54 Q1484.65 1468.54 1487.8 1472.36 Q1490.95 1476.15 1490.95 1483.54 Z" fill="#000000" fill-rule="nonzero" fill-opacity="1"></path><polyline clip-path="url(#clip792)" style="stroke:#000000; stroke-linecap:round; stroke-linejoin:round; stroke-width:2; stroke-opacity:0.1; fill:none" points="401.284,1351.81 2289.76,1351.81 "></polyline>
<polyline clip-path="url(#clip792)" style="stroke:#000000; stroke-linecap:round; stroke-linejoin:round; stroke-width:2; stroke-opacity:0.1; fill:none" points="401.284,1174.16 2289.76,1174.16 "></polyline>
<polyline clip-path="url(#clip792)" style="stroke:#000000; stroke-linecap:round; stroke-linejoin:round; stroke-width:2; stroke-opacity:0.1; fill:none" points="401.284,996.499 2289.76,996.499 "></polyline>
<polyline clip-path="url(#clip792)" style="stroke:#000000; stroke-linecap:round; stroke-linejoin:round; stroke-width:2; stroke-opacity:0.1; fill:none" points="401.284,818.843 2289.76,818.843 "></polyline>
<polyline clip-path="url(#clip792)" style="stroke:#000000; stroke-linecap:round; stroke-linejoin:round; stroke-width:2; stroke-opacity:0.1; fill:none" points="401.284,641.187 2289.76,641.187 "></polyline>
<polyline clip-path="url(#clip792)" style="stroke:#000000; stroke-linecap:round; stroke-linejoin:round; stroke-width:2; stroke-opacity:0.1; fill:none" points="401.284,463.53 2289.76,463.53 "></polyline>
<polyline clip-path="url(#clip792)" style="stroke:#000000; stroke-linecap:round; stroke-linejoin:round; stroke-width:2; stroke-opacity:0.1; fill:none" points="401.284,285.874 2289.76,285.874 "></polyline>
<polyline clip-path="url(#clip790)" style="stroke:#000000; stroke-linecap:round; stroke-linejoin:round; stroke-width:4; stroke-opacity:1; fill:none" points="401.284,1360.19 401.284,186.464 "></polyline>
<polyline clip-path="url(#clip790)" style="stroke:#000000; stroke-linecap:round; stroke-linejoin:round; stroke-width:4; stroke-opacity:1; fill:none" points="401.284,1351.81 420.181,1351.81 "></polyline>
<polyline clip-path="url(#clip790)" style="stroke:#000000; stroke-linecap:round; stroke-linejoin:round; stroke-width:4; stroke-opacity:1; fill:none" points="401.284,1174.16 420.181,1174.16 "></polyline>
<polyline clip-path="url(#clip790)" style="stroke:#000000; stroke-linecap:round; stroke-linejoin:round; stroke-width:4; stroke-opacity:1; fill:none" points="401.284,996.499 420.181,996.499 "></polyline>
<polyline clip-path="url(#clip790)" style="stroke:#000000; stroke-linecap:round; stroke-linejoin:round; stroke-width:4; stroke-opacity:1; fill:none" points="401.284,818.843 420.181,818.843 "></polyline>
<polyline clip-path="url(#clip790)" style="stroke:#000000; stroke-linecap:round; stroke-linejoin:round; stroke-width:4; stroke-opacity:1; fill:none" points="401.284,641.187 420.181,641.187 "></polyline>
<polyline clip-path="url(#clip790)" style="stroke:#000000; stroke-linecap:round; stroke-linejoin:round; stroke-width:4; stroke-opacity:1; fill:none" points="401.284,463.53 420.181,463.53 "></polyline>
<polyline clip-path="url(#clip790)" style="stroke:#000000; stroke-linecap:round; stroke-linejoin:round; stroke-width:4; stroke-opacity:1; fill:none" points="401.284,285.874 420.181,285.874 "></polyline>
<path clip-path="url(#clip790)" d="M180.817 1371.6 L188.456 1371.6 L188.456 1345.24 L180.146 1346.91 L180.146 1342.65 L188.41 1340.98 L193.086 1340.98 L193.086 1371.6 L200.724 1371.6 L200.724 1375.54 L180.817 1375.54 L180.817 1371.6 Z" fill="#000000" fill-rule="nonzero" fill-opacity="1"></path><path clip-path="url(#clip790)" d="M210.169 1369.66 L215.053 1369.66 L215.053 1375.54 L210.169 1375.54 L210.169 1369.66 Z" fill="#000000" fill-rule="nonzero" fill-opacity="1"></path><path clip-path="url(#clip790)" d="M235.238 1344.06 Q231.627 1344.06 229.798 1347.62 Q227.993 1351.16 227.993 1358.29 Q227.993 1365.4 229.798 1368.97 Q231.627 1372.51 235.238 1372.51 Q238.872 1372.51 240.678 1368.97 Q242.507 1365.4 242.507 1358.29 Q242.507 1351.16 240.678 1347.62 Q238.872 1344.06 235.238 1344.06 M235.238 1340.35 Q241.048 1340.35 244.104 1344.96 Q247.182 1349.54 247.182 1358.29 Q247.182 1367.02 244.104 1371.63 Q241.048 1376.21 235.238 1376.21 Q229.428 1376.21 226.349 1371.63 Q223.294 1367.02 223.294 1358.29 Q223.294 1349.54 226.349 1344.96 Q229.428 1340.35 235.238 1340.35 Z" fill="#000000" fill-rule="nonzero" fill-opacity="1"></path><path clip-path="url(#clip790)" d="M283.571 1350.08 L272.993 1360.7 L283.571 1371.28 L280.817 1374.08 L270.192 1363.46 L259.567 1374.08 L256.835 1371.28 L267.391 1360.7 L256.835 1350.08 L259.567 1347.28 L270.192 1357.9 L280.817 1347.28 L283.571 1350.08 Z" fill="#000000" fill-rule="nonzero" fill-opacity="1"></path><path clip-path="url(#clip790)" d="M295.932 1371.6 L303.571 1371.6 L303.571 1345.24 L295.261 1346.91 L295.261 1342.65 L303.525 1340.98 L308.201 1340.98 L308.201 1371.6 L315.84 1371.6 L315.84 1375.54 L295.932 1375.54 L295.932 1371.6 Z" fill="#000000" fill-rule="nonzero" fill-opacity="1"></path><path clip-path="url(#clip790)" d="M335.284 1344.06 Q331.673 1344.06 329.844 1347.62 Q328.039 1351.16 328.039 1358.29 Q328.039 1365.4 329.844 1368.97 Q331.673 1372.51 335.284 1372.51 Q338.918 1372.51 340.724 1368.97 Q342.552 1365.4 342.552 1358.29 Q342.552 1351.16 340.724 1347.62 Q338.918 1344.06 335.284 1344.06 M335.284 1340.35 Q341.094 1340.35 344.15 1344.96 Q347.228 1349.54 347.228 1358.29 Q347.228 1367.02 344.15 1371.63 Q341.094 1376.21 335.284 1376.21 Q329.474 1376.21 326.395 1371.63 Q323.339 1367.02 323.339 1358.29 Q323.339 1349.54 326.395 1344.96 Q329.474 1340.35 335.284 1340.35 Z" fill="#000000" fill-rule="nonzero" fill-opacity="1"></path><path clip-path="url(#clip790)" d="M347.228 1320.05 L365.284 1320.05 L365.284 1321.67 L355.09 1348.13 L351.121 1348.13 L360.713 1323.25 L347.228 1323.25 L347.228 1320.05 Z" fill="#000000" fill-rule="nonzero" fill-opacity="1"></path><path clip-path="url(#clip790)" d="M184.035 1193.95 L200.354 1193.95 L200.354 1197.88 L178.41 1197.88 L178.41 1193.95 Q181.072 1191.19 185.655 1186.56 Q190.261 1181.91 191.442 1180.57 Q193.687 1178.05 194.567 1176.31 Q195.47 1174.55 195.47 1172.86 Q195.47 1170.11 193.525 1168.37 Q191.604 1166.63 188.502 1166.63 Q186.303 1166.63 183.849 1167.4 Q181.419 1168.16 178.641 1169.71 L178.641 1164.99 Q181.465 1163.86 183.919 1163.28 Q186.373 1162.7 188.41 1162.7 Q193.78 1162.7 196.974 1165.38 Q200.169 1168.07 200.169 1172.56 Q200.169 1174.69 199.359 1176.61 Q198.572 1178.51 196.465 1181.1 Q195.886 1181.77 192.785 1184.99 Q189.683 1188.18 184.035 1193.95 Z" fill="#000000" fill-rule="nonzero" fill-opacity="1"></path><path clip-path="url(#clip790)" d="M210.169 1192 L215.053 1192 L215.053 1197.88 L210.169 1197.88 L210.169 1192 Z" fill="#000000" fill-rule="nonzero" fill-opacity="1"></path><path clip-path="url(#clip790)" d="M235.238 1166.4 Q231.627 1166.4 229.798 1169.97 Q227.993 1173.51 227.993 1180.64 Q227.993 1187.74 229.798 1191.31 Q231.627 1194.85 235.238 1194.85 Q238.872 1194.85 240.678 1191.31 Q242.507 1187.74 242.507 1180.64 Q242.507 1173.51 240.678 1169.97 Q238.872 1166.4 235.238 1166.4 M235.238 1162.7 Q241.048 1162.7 244.104 1167.3 Q247.182 1171.89 247.182 1180.64 Q247.182 1189.36 244.104 1193.97 Q241.048 1198.55 235.238 1198.55 Q229.428 1198.55 226.349 1193.97 Q223.294 1189.36 223.294 1180.64 Q223.294 1171.89 226.349 1167.3 Q229.428 1162.7 235.238 1162.7 Z" fill="#000000" fill-rule="nonzero" fill-opacity="1"></path><path clip-path="url(#clip790)" d="M283.571 1172.42 L272.993 1183.05 L283.571 1193.62 L280.817 1196.42 L270.192 1185.8 L259.567 1196.42 L256.835 1193.62 L267.391 1183.05 L256.835 1172.42 L259.567 1169.62 L270.192 1180.24 L280.817 1169.62 L283.571 1172.42 Z" fill="#000000" fill-rule="nonzero" fill-opacity="1"></path><path clip-path="url(#clip790)" d="M295.932 1193.95 L303.571 1193.95 L303.571 1167.58 L295.261 1169.25 L295.261 1164.99 L303.525 1163.32 L308.201 1163.32 L308.201 1193.95 L315.84 1193.95 L315.84 1197.88 L295.932 1197.88 L295.932 1193.95 Z" fill="#000000" fill-rule="nonzero" fill-opacity="1"></path><path clip-path="url(#clip790)" d="M335.284 1166.4 Q331.673 1166.4 329.844 1169.97 Q328.039 1173.51 328.039 1180.64 Q328.039 1187.74 329.844 1191.31 Q331.673 1194.85 335.284 1194.85 Q338.918 1194.85 340.724 1191.31 Q342.552 1187.74 342.552 1180.64 Q342.552 1173.51 340.724 1169.97 Q338.918 1166.4 335.284 1166.4 M335.284 1162.7 Q341.094 1162.7 344.15 1167.3 Q347.228 1171.89 347.228 1180.64 Q347.228 1189.36 344.15 1193.97 Q341.094 1198.55 335.284 1198.55 Q329.474 1198.55 326.395 1193.97 Q323.339 1189.36 323.339 1180.64 Q323.339 1171.89 326.395 1167.3 Q329.474 1162.7 335.284 1162.7 Z" fill="#000000" fill-rule="nonzero" fill-opacity="1"></path><path clip-path="url(#clip790)" d="M347.228 1142.39 L365.284 1142.39 L365.284 1144.01 L355.09 1170.47 L351.121 1170.47 L360.713 1145.59 L347.228 1145.59 L347.228 1142.39 Z" fill="#000000" fill-rule="nonzero" fill-opacity="1"></path><path clip-path="url(#clip790)" d="M194.173 1001.59 Q197.53 1002.31 199.405 1004.58 Q201.303 1006.85 201.303 1010.18 Q201.303 1015.3 197.785 1018.1 Q194.266 1020.9 187.785 1020.9 Q185.609 1020.9 183.294 1020.46 Q181.002 1020.04 178.549 1019.19 L178.549 1014.67 Q180.493 1015.81 182.808 1016.38 Q185.123 1016.96 187.646 1016.96 Q192.044 1016.96 194.336 1015.23 Q196.65 1013.49 196.65 1010.18 Q196.65 1007.13 194.498 1005.41 Q192.368 1003.68 188.549 1003.68 L184.521 1003.68 L184.521 999.834 L188.734 999.834 Q192.183 999.834 194.011 998.468 Q195.84 997.079 195.84 994.486 Q195.84 991.824 193.942 990.412 Q192.067 988.977 188.549 988.977 Q186.627 988.977 184.428 989.394 Q182.229 989.81 179.59 990.69 L179.59 986.523 Q182.252 985.783 184.567 985.412 Q186.905 985.042 188.965 985.042 Q194.289 985.042 197.391 987.472 Q200.493 989.88 200.493 994 Q200.493 996.871 198.849 998.861 Q197.206 1000.83 194.173 1001.59 Z" fill="#000000" fill-rule="nonzero" fill-opacity="1"></path><path clip-path="url(#clip790)" d="M210.169 1014.35 L215.053 1014.35 L215.053 1020.23 L210.169 1020.23 L210.169 1014.35 Z" fill="#000000" fill-rule="nonzero" fill-opacity="1"></path><path clip-path="url(#clip790)" d="M235.238 988.746 Q231.627 988.746 229.798 992.31 Q227.993 995.852 227.993 1002.98 Q227.993 1010.09 229.798 1013.65 Q231.627 1017.19 235.238 1017.19 Q238.872 1017.19 240.678 1013.65 Q242.507 1010.09 242.507 1002.98 Q242.507 995.852 240.678 992.31 Q238.872 988.746 235.238 988.746 M235.238 985.042 Q241.048 985.042 244.104 989.648 Q247.182 994.232 247.182 1002.98 Q247.182 1011.71 244.104 1016.31 Q241.048 1020.9 235.238 1020.9 Q229.428 1020.9 226.349 1016.31 Q223.294 1011.71 223.294 1002.98 Q223.294 994.232 226.349 989.648 Q229.428 985.042 235.238 985.042 Z" fill="#000000" fill-rule="nonzero" fill-opacity="1"></path><path clip-path="url(#clip790)" d="M283.571 994.764 L272.993 1005.39 L283.571 1015.97 L280.817 1018.77 L270.192 1008.14 L259.567 1018.77 L256.835 1015.97 L267.391 1005.39 L256.835 994.764 L259.567 991.963 L270.192 1002.59 L280.817 991.963 L283.571 994.764 Z" fill="#000000" fill-rule="nonzero" fill-opacity="1"></path><path clip-path="url(#clip790)" d="M295.932 1016.29 L303.571 1016.29 L303.571 989.926 L295.261 991.593 L295.261 987.334 L303.525 985.667 L308.201 985.667 L308.201 1016.29 L315.84 1016.29 L315.84 1020.23 L295.932 1020.23 L295.932 1016.29 Z" fill="#000000" fill-rule="nonzero" fill-opacity="1"></path><path clip-path="url(#clip790)" d="M335.284 988.746 Q331.673 988.746 329.844 992.31 Q328.039 995.852 328.039 1002.98 Q328.039 1010.09 329.844 1013.65 Q331.673 1017.19 335.284 1017.19 Q338.918 1017.19 340.724 1013.65 Q342.552 1010.09 342.552 1002.98 Q342.552 995.852 340.724 992.31 Q338.918 988.746 335.284 988.746 M335.284 985.042 Q341.094 985.042 344.15 989.648 Q347.228 994.232 347.228 1002.98 Q347.228 1011.71 344.15 1016.31 Q341.094 1020.9 335.284 1020.9 Q329.474 1020.9 326.395 1016.31 Q323.339 1011.71 323.339 1002.98 Q323.339 994.232 326.395 989.648 Q329.474 985.042 335.284 985.042 Z" fill="#000000" fill-rule="nonzero" fill-opacity="1"></path><path clip-path="url(#clip790)" d="M347.228 964.737 L365.284 964.737 L365.284 966.354 L355.09 992.817 L351.121 992.817 L360.713 967.934 L347.228 967.934 L347.228 964.737 Z" fill="#000000" fill-rule="nonzero" fill-opacity="1"></path><path clip-path="url(#clip790)" d="M192.854 812.085 L181.049 830.534 L192.854 830.534 L192.854 812.085 M191.627 808.011 L197.507 808.011 L197.507 830.534 L202.437 830.534 L202.437 834.423 L197.507 834.423 L197.507 842.571 L192.854 842.571 L192.854 834.423 L177.252 834.423 L177.252 829.909 L191.627 808.011 Z" fill="#000000" fill-rule="nonzero" fill-opacity="1"></path><path clip-path="url(#clip790)" d="M210.169 836.691 L215.053 836.691 L215.053 842.571 L210.169 842.571 L210.169 836.691 Z" fill="#000000" fill-rule="nonzero" fill-opacity="1"></path><path clip-path="url(#clip790)" d="M235.238 811.089 Q231.627 811.089 229.798 814.654 Q227.993 818.196 227.993 825.325 Q227.993 832.432 229.798 835.997 Q231.627 839.538 235.238 839.538 Q238.872 839.538 240.678 835.997 Q242.507 832.432 242.507 825.325 Q242.507 818.196 240.678 814.654 Q238.872 811.089 235.238 811.089 M235.238 807.386 Q241.048 807.386 244.104 811.992 Q247.182 816.575 247.182 825.325 Q247.182 834.052 244.104 838.659 Q241.048 843.242 235.238 843.242 Q229.428 843.242 226.349 838.659 Q223.294 834.052 223.294 825.325 Q223.294 816.575 226.349 811.992 Q229.428 807.386 235.238 807.386 Z" fill="#000000" fill-rule="nonzero" fill-opacity="1"></path><path clip-path="url(#clip790)" d="M283.571 817.108 L272.993 827.733 L283.571 838.311 L280.817 841.112 L270.192 830.487 L259.567 841.112 L256.835 838.311 L267.391 827.733 L256.835 817.108 L259.567 814.307 L270.192 824.932 L280.817 814.307 L283.571 817.108 Z" fill="#000000" fill-rule="nonzero" fill-opacity="1"></path><path clip-path="url(#clip790)" d="M295.932 838.635 L303.571 838.635 L303.571 812.27 L295.261 813.937 L295.261 809.677 L303.525 808.011 L308.201 808.011 L308.201 838.635 L315.84 838.635 L315.84 842.571 L295.932 842.571 L295.932 838.635 Z" fill="#000000" fill-rule="nonzero" fill-opacity="1"></path><path clip-path="url(#clip790)" d="M335.284 811.089 Q331.673 811.089 329.844 814.654 Q328.039 818.196 328.039 825.325 Q328.039 832.432 329.844 835.997 Q331.673 839.538 335.284 839.538 Q338.918 839.538 340.724 835.997 Q342.552 832.432 342.552 825.325 Q342.552 818.196 340.724 814.654 Q338.918 811.089 335.284 811.089 M335.284 807.386 Q341.094 807.386 344.15 811.992 Q347.228 816.575 347.228 825.325 Q347.228 834.052 344.15 838.659 Q341.094 843.242 335.284 843.242 Q329.474 843.242 326.395 838.659 Q323.339 834.052 323.339 825.325 Q323.339 816.575 326.395 811.992 Q329.474 807.386 335.284 807.386 Z" fill="#000000" fill-rule="nonzero" fill-opacity="1"></path><path clip-path="url(#clip790)" d="M347.228 787.08 L365.284 787.08 L365.284 788.698 L355.09 815.16 L351.121 815.16 L360.713 790.278 L347.228 790.278 L347.228 787.08 Z" fill="#000000" fill-rule="nonzero" fill-opacity="1"></path><path clip-path="url(#clip790)" d="M180.053 630.354 L198.41 630.354 L198.41 634.289 L184.336 634.289 L184.336 642.762 Q185.354 642.414 186.373 642.252 Q187.391 642.067 188.41 642.067 Q194.197 642.067 197.576 645.239 Q200.956 648.41 200.956 653.826 Q200.956 659.405 197.484 662.507 Q194.011 665.586 187.692 665.586 Q185.516 665.586 183.248 665.215 Q181.002 664.845 178.595 664.104 L178.595 659.405 Q180.678 660.539 182.9 661.095 Q185.123 661.65 187.599 661.65 Q191.604 661.65 193.942 659.544 Q196.28 657.438 196.28 653.826 Q196.28 650.215 193.942 648.109 Q191.604 646.002 187.599 646.002 Q185.724 646.002 183.849 646.419 Q181.998 646.836 180.053 647.715 L180.053 630.354 Z" fill="#000000" fill-rule="nonzero" fill-opacity="1"></path><path clip-path="url(#clip790)" d="M210.169 659.035 L215.053 659.035 L215.053 664.914 L210.169 664.914 L210.169 659.035 Z" fill="#000000" fill-rule="nonzero" fill-opacity="1"></path><path clip-path="url(#clip790)" d="M235.238 633.433 Q231.627 633.433 229.798 636.998 Q227.993 640.539 227.993 647.669 Q227.993 654.775 229.798 658.34 Q231.627 661.882 235.238 661.882 Q238.872 661.882 240.678 658.34 Q242.507 654.775 242.507 647.669 Q242.507 640.539 240.678 636.998 Q238.872 633.433 235.238 633.433 M235.238 629.729 Q241.048 629.729 244.104 634.336 Q247.182 638.919 247.182 647.669 Q247.182 656.396 244.104 661.002 Q241.048 665.586 235.238 665.586 Q229.428 665.586 226.349 661.002 Q223.294 656.396 223.294 647.669 Q223.294 638.919 226.349 634.336 Q229.428 629.729 235.238 629.729 Z" fill="#000000" fill-rule="nonzero" fill-opacity="1"></path><path clip-path="url(#clip790)" d="M283.571 639.452 L272.993 650.076 L283.571 660.655 L280.817 663.456 L270.192 652.831 L259.567 663.456 L256.835 660.655 L267.391 650.076 L256.835 639.452 L259.567 636.651 L270.192 647.276 L280.817 636.651 L283.571 639.452 Z" fill="#000000" fill-rule="nonzero" fill-opacity="1"></path><path clip-path="url(#clip790)" d="M295.932 660.979 L303.571 660.979 L303.571 634.614 L295.261 636.28 L295.261 632.021 L303.525 630.354 L308.201 630.354 L308.201 660.979 L315.84 660.979 L315.84 664.914 L295.932 664.914 L295.932 660.979 Z" fill="#000000" fill-rule="nonzero" fill-opacity="1"></path><path clip-path="url(#clip790)" d="M335.284 633.433 Q331.673 633.433 329.844 636.998 Q328.039 640.539 328.039 647.669 Q328.039 654.775 329.844 658.34 Q331.673 661.882 335.284 661.882 Q338.918 661.882 340.724 658.34 Q342.552 654.775 342.552 647.669 Q342.552 640.539 340.724 636.998 Q338.918 633.433 335.284 633.433 M335.284 629.729 Q341.094 629.729 344.15 634.336 Q347.228 638.919 347.228 647.669 Q347.228 656.396 344.15 661.002 Q341.094 665.586 335.284 665.586 Q329.474 665.586 326.395 661.002 Q323.339 656.396 323.339 647.669 Q323.339 638.919 326.395 634.336 Q329.474 629.729 335.284 629.729 Z" fill="#000000" fill-rule="nonzero" fill-opacity="1"></path><path clip-path="url(#clip790)" d="M347.228 609.424 L365.284 609.424 L365.284 611.041 L355.09 637.504 L351.121 637.504 L360.713 612.621 L347.228 612.621 L347.228 609.424 Z" fill="#000000" fill-rule="nonzero" fill-opacity="1"></path><path clip-path="url(#clip790)" d="M190.586 468.115 Q187.437 468.115 185.586 470.267 Q183.757 472.42 183.757 476.17 Q183.757 479.897 185.586 482.073 Q187.437 484.226 190.586 484.226 Q193.734 484.226 195.562 482.073 Q197.414 479.897 197.414 476.17 Q197.414 472.42 195.562 470.267 Q193.734 468.115 190.586 468.115 M199.868 453.462 L199.868 457.721 Q198.109 456.888 196.303 456.448 Q194.521 456.008 192.761 456.008 Q188.132 456.008 185.678 459.133 Q183.248 462.258 182.9 468.578 Q184.266 466.564 186.326 465.499 Q188.386 464.411 190.863 464.411 Q196.072 464.411 199.081 467.582 Q202.113 470.73 202.113 476.17 Q202.113 481.494 198.965 484.712 Q195.817 487.929 190.586 487.929 Q184.59 487.929 181.419 483.346 Q178.248 478.74 178.248 470.013 Q178.248 461.818 182.137 456.957 Q186.025 452.073 192.576 452.073 Q194.336 452.073 196.118 452.42 Q197.923 452.767 199.868 453.462 Z" fill="#000000" fill-rule="nonzero" fill-opacity="1"></path><path clip-path="url(#clip790)" d="M210.169 481.378 L215.053 481.378 L215.053 487.258 L210.169 487.258 L210.169 481.378 Z" fill="#000000" fill-rule="nonzero" fill-opacity="1"></path><path clip-path="url(#clip790)" d="M235.238 455.777 Q231.627 455.777 229.798 459.342 Q227.993 462.883 227.993 470.013 Q227.993 477.119 229.798 480.684 Q231.627 484.226 235.238 484.226 Q238.872 484.226 240.678 480.684 Q242.507 477.119 242.507 470.013 Q242.507 462.883 240.678 459.342 Q238.872 455.777 235.238 455.777 M235.238 452.073 Q241.048 452.073 244.104 456.68 Q247.182 461.263 247.182 470.013 Q247.182 478.74 244.104 483.346 Q241.048 487.929 235.238 487.929 Q229.428 487.929 226.349 483.346 Q223.294 478.74 223.294 470.013 Q223.294 461.263 226.349 456.68 Q229.428 452.073 235.238 452.073 Z" fill="#000000" fill-rule="nonzero" fill-opacity="1"></path><path clip-path="url(#clip790)" d="M283.571 461.795 L272.993 472.42 L283.571 482.999 L280.817 485.8 L270.192 475.175 L259.567 485.8 L256.835 482.999 L267.391 472.42 L256.835 461.795 L259.567 458.994 L270.192 469.619 L280.817 458.994 L283.571 461.795 Z" fill="#000000" fill-rule="nonzero" fill-opacity="1"></path><path clip-path="url(#clip790)" d="M295.932 483.323 L303.571 483.323 L303.571 456.957 L295.261 458.624 L295.261 454.365 L303.525 452.698 L308.201 452.698 L308.201 483.323 L315.84 483.323 L315.84 487.258 L295.932 487.258 L295.932 483.323 Z" fill="#000000" fill-rule="nonzero" fill-opacity="1"></path><path clip-path="url(#clip790)" d="M335.284 455.777 Q331.673 455.777 329.844 459.342 Q328.039 462.883 328.039 470.013 Q328.039 477.119 329.844 480.684 Q331.673 484.226 335.284 484.226 Q338.918 484.226 340.724 480.684 Q342.552 477.119 342.552 470.013 Q342.552 462.883 340.724 459.342 Q338.918 455.777 335.284 455.777 M335.284 452.073 Q341.094 452.073 344.15 456.68 Q347.228 461.263 347.228 470.013 Q347.228 478.74 344.15 483.346 Q341.094 487.929 335.284 487.929 Q329.474 487.929 326.395 483.346 Q323.339 478.74 323.339 470.013 Q323.339 461.263 326.395 456.68 Q329.474 452.073 335.284 452.073 Z" fill="#000000" fill-rule="nonzero" fill-opacity="1"></path><path clip-path="url(#clip790)" d="M347.228 431.768 L365.284 431.768 L365.284 433.385 L355.09 459.848 L351.121 459.848 L360.713 434.965 L347.228 434.965 L347.228 431.768 Z" fill="#000000" fill-rule="nonzero" fill-opacity="1"></path><path clip-path="url(#clip790)" d="M178.826 275.042 L201.048 275.042 L201.048 277.032 L188.502 309.602 L183.618 309.602 L195.423 278.977 L178.826 278.977 L178.826 275.042 Z" fill="#000000" fill-rule="nonzero" fill-opacity="1"></path><path clip-path="url(#clip790)" d="M210.169 303.722 L215.053 303.722 L215.053 309.602 L210.169 309.602 L210.169 303.722 Z" fill="#000000" fill-rule="nonzero" fill-opacity="1"></path><path clip-path="url(#clip790)" d="M235.238 278.12 Q231.627 278.12 229.798 281.685 Q227.993 285.227 227.993 292.356 Q227.993 299.463 229.798 303.028 Q231.627 306.569 235.238 306.569 Q238.872 306.569 240.678 303.028 Q242.507 299.463 242.507 292.356 Q242.507 285.227 240.678 281.685 Q238.872 278.12 235.238 278.12 M235.238 274.417 Q241.048 274.417 244.104 279.023 Q247.182 283.607 247.182 292.356 Q247.182 301.083 244.104 305.69 Q241.048 310.273 235.238 310.273 Q229.428 310.273 226.349 305.69 Q223.294 301.083 223.294 292.356 Q223.294 283.607 226.349 279.023 Q229.428 274.417 235.238 274.417 Z" fill="#000000" fill-rule="nonzero" fill-opacity="1"></path><path clip-path="url(#clip790)" d="M283.571 284.139 L272.993 294.764 L283.571 305.343 L280.817 308.143 L270.192 297.518 L259.567 308.143 L256.835 305.343 L267.391 294.764 L256.835 284.139 L259.567 281.338 L270.192 291.963 L280.817 281.338 L283.571 284.139 Z" fill="#000000" fill-rule="nonzero" fill-opacity="1"></path><path clip-path="url(#clip790)" d="M295.932 305.667 L303.571 305.667 L303.571 279.301 L295.261 280.968 L295.261 276.708 L303.525 275.042 L308.201 275.042 L308.201 305.667 L315.84 305.667 L315.84 309.602 L295.932 309.602 L295.932 305.667 Z" fill="#000000" fill-rule="nonzero" fill-opacity="1"></path><path clip-path="url(#clip790)" d="M335.284 278.12 Q331.673 278.12 329.844 281.685 Q328.039 285.227 328.039 292.356 Q328.039 299.463 329.844 303.028 Q331.673 306.569 335.284 306.569 Q338.918 306.569 340.724 303.028 Q342.552 299.463 342.552 292.356 Q342.552 285.227 340.724 281.685 Q338.918 278.12 335.284 278.12 M335.284 274.417 Q341.094 274.417 344.15 279.023 Q347.228 283.607 347.228 292.356 Q347.228 301.083 344.15 305.69 Q341.094 310.273 335.284 310.273 Q329.474 310.273 326.395 305.69 Q323.339 301.083 323.339 292.356 Q323.339 283.607 326.395 279.023 Q329.474 274.417 335.284 274.417 Z" fill="#000000" fill-rule="nonzero" fill-opacity="1"></path><path clip-path="url(#clip790)" d="M347.228 254.111 L365.284 254.111 L365.284 255.729 L355.09 282.191 L351.121 282.191 L360.713 257.309 L347.228 257.309 L347.228 254.111 Z" fill="#000000" fill-rule="nonzero" fill-opacity="1"></path><path clip-path="url(#clip790)" d="M79.4763 836.187 L79.4763 827.53 L119.23 806.459 L79.4763 806.459 L79.4763 800.221 L126.996 800.221 L126.996 808.878 L87.2424 829.949 L126.996 829.949 L126.996 836.187 L79.4763 836.187 Z" fill="#000000" fill-rule="nonzero" fill-opacity="1"></path><path clip-path="url(#clip790)" d="M84.7598 780.997 L102.616 780.997 L102.616 772.912 Q102.616 768.424 100.292 765.974 Q97.9687 763.523 93.6718 763.523 Q89.4068 763.523 87.0833 765.974 Q84.7598 768.424 84.7598 772.912 L84.7598 780.997 M79.4763 787.426 L79.4763 772.912 Q79.4763 764.923 83.1047 760.849 Q86.7014 756.743 93.6718 756.743 Q100.706 756.743 104.303 760.849 Q107.899 764.923 107.899 772.912 L107.899 780.997 L126.996 780.997 L126.996 787.426 L79.4763 787.426 Z" fill="#000000" fill-rule="nonzero" fill-opacity="1"></path><path clip-path="url(#clip790)" d="M126.996 735.864 L79.4763 754.006 L79.4763 747.29 L119.485 732.235 L79.4763 717.149 L79.4763 710.465 L126.996 728.575 L126.996 735.864 Z" fill="#000000" fill-rule="nonzero" fill-opacity="1"></path><path clip-path="url(#clip790)" d="M968.425 12.096 L1006.67 12.096 L1006.67 18.9825 L976.608 18.9825 L976.608 36.8875 L1005.41 36.8875 L1005.41 43.7741 L976.608 43.7741 L976.608 65.6895 L1007.39 65.6895 L1007.39 72.576 L968.425 72.576 L968.425 12.096 Z" fill="#000000" fill-rule="nonzero" fill-opacity="1"></path><path clip-path="url(#clip790)" d="M1020.52 9.54393 L1027.97 9.54393 L1027.97 72.576 L1020.52 72.576 L1020.52 9.54393 Z" fill="#000000" fill-rule="nonzero" fill-opacity="1"></path><path clip-path="url(#clip790)" d="M1082.38 48.0275 L1082.38 51.6733 L1048.11 51.6733 Q1048.59 59.3701 1052.72 63.421 Q1056.9 67.4314 1064.31 67.4314 Q1068.6 67.4314 1072.61 66.3781 Q1076.67 65.3249 1080.64 63.2184 L1080.64 70.267 Q1076.62 71.9684 1072.41 72.8596 Q1068.2 73.7508 1063.86 73.7508 Q1053.01 73.7508 1046.65 67.4314 Q1040.33 61.1119 1040.33 50.3365 Q1040.33 39.1965 1046.32 32.6746 Q1052.36 26.1121 1062.57 26.1121 Q1071.72 26.1121 1077.03 32.0264 Q1082.38 37.9003 1082.38 48.0275 M1074.92 45.84 Q1074.84 39.7232 1071.48 36.0774 Q1068.16 32.4315 1062.65 32.4315 Q1056.41 32.4315 1052.64 35.9558 Q1048.92 39.4801 1048.35 45.8805 L1074.92 45.84 Z" fill="#000000" fill-rule="nonzero" fill-opacity="1"></path><path clip-path="url(#clip790)" d="M1089.26 27.2059 L1097.16 27.2059 L1111.34 65.2844 L1125.52 27.2059 L1133.42 27.2059 L1116.4 72.576 L1106.28 72.576 L1089.26 27.2059 Z" fill="#000000" fill-rule="nonzero" fill-opacity="1"></path><path clip-path="url(#clip790)" d="M1164.33 49.7694 Q1155.29 49.7694 1151.81 51.8354 Q1148.33 53.9013 1148.33 58.8839 Q1148.33 62.8538 1150.92 65.2034 Q1153.55 67.5124 1158.05 67.5124 Q1164.25 67.5124 1167.97 63.1374 Q1171.74 58.7219 1171.74 51.4303 L1171.74 49.7694 L1164.33 49.7694 M1179.19 46.6907 L1179.19 72.576 L1171.74 72.576 L1171.74 65.6895 Q1169.19 69.8214 1165.38 71.8063 Q1161.57 73.7508 1156.06 73.7508 Q1149.1 73.7508 1144.96 69.8619 Q1140.87 65.9325 1140.87 59.3701 Q1140.87 51.7138 1145.98 47.825 Q1151.12 43.9361 1161.29 43.9361 L1171.74 43.9361 L1171.74 43.2069 Q1171.74 38.0623 1168.34 35.2672 Q1164.97 32.4315 1158.86 32.4315 Q1154.97 32.4315 1151.28 33.3632 Q1147.6 34.295 1144.19 36.1584 L1144.19 29.2718 Q1148.29 27.692 1152.13 26.9223 Q1155.98 26.1121 1159.63 26.1121 Q1169.47 26.1121 1174.33 31.2163 Q1179.19 36.3204 1179.19 46.6907 Z" fill="#000000" fill-rule="nonzero" fill-opacity="1"></path><path clip-path="url(#clip790)" d="M1201.92 14.324 L1201.92 27.2059 L1217.27 27.2059 L1217.27 32.9987 L1201.92 32.9987 L1201.92 57.6282 Q1201.92 63.1779 1203.42 64.7578 Q1204.96 66.3376 1209.62 66.3376 L1217.27 66.3376 L1217.27 72.576 L1209.62 72.576 Q1200.99 72.576 1197.71 69.3758 Q1194.43 66.1351 1194.43 57.6282 L1194.43 32.9987 L1188.96 32.9987 L1188.96 27.2059 L1194.43 27.2059 L1194.43 14.324 L1201.92 14.324 Z" fill="#000000" fill-rule="nonzero" fill-opacity="1"></path><path clip-path="url(#clip790)" d="M1227.08 27.2059 L1234.53 27.2059 L1234.53 72.576 L1227.08 72.576 L1227.08 27.2059 M1227.08 9.54393 L1234.53 9.54393 L1234.53 18.9825 L1227.08 18.9825 L1227.08 9.54393 Z" fill="#000000" fill-rule="nonzero" fill-opacity="1"></path><path clip-path="url(#clip790)" d="M1267.71 32.4315 Q1261.71 32.4315 1258.23 37.1306 Q1254.74 41.7891 1254.74 49.9314 Q1254.74 58.0738 1258.19 62.7728 Q1261.67 67.4314 1267.71 67.4314 Q1273.66 67.4314 1277.14 62.7323 Q1280.63 58.0333 1280.63 49.9314 Q1280.63 41.8701 1277.14 37.1711 Q1273.66 32.4315 1267.71 32.4315 M1267.71 26.1121 Q1277.43 26.1121 1282.98 32.4315 Q1288.53 38.7509 1288.53 49.9314 Q1288.53 61.0714 1282.98 67.4314 Q1277.43 73.7508 1267.71 73.7508 Q1257.94 73.7508 1252.39 67.4314 Q1246.88 61.0714 1246.88 49.9314 Q1246.88 38.7509 1252.39 32.4315 Q1257.94 26.1121 1267.71 26.1121 Z" fill="#000000" fill-rule="nonzero" fill-opacity="1"></path><path clip-path="url(#clip790)" d="M1338.6 45.1919 L1338.6 72.576 L1331.14 72.576 L1331.14 45.4349 Q1331.14 38.994 1328.63 35.7938 Q1326.12 32.5936 1321.1 32.5936 Q1315.06 32.5936 1311.58 36.4419 Q1308.09 40.2903 1308.09 46.9338 L1308.09 72.576 L1300.6 72.576 L1300.6 27.2059 L1308.09 27.2059 L1308.09 34.2544 Q1310.77 30.163 1314.37 28.1376 Q1318.02 26.1121 1322.76 26.1121 Q1330.58 26.1121 1334.59 30.9732 Q1338.6 35.7938 1338.6 45.1919 Z" fill="#000000" fill-rule="nonzero" fill-opacity="1"></path><path clip-path="url(#clip790)" d="M1400.45 49.7694 Q1391.42 49.7694 1387.94 51.8354 Q1384.45 53.9013 1384.45 58.8839 Q1384.45 62.8538 1387.05 65.2034 Q1389.68 67.5124 1394.18 67.5124 Q1400.37 67.5124 1404.1 63.1374 Q1407.87 58.7219 1407.87 51.4303 L1407.87 49.7694 L1400.45 49.7694 M1415.32 46.6907 L1415.32 72.576 L1407.87 72.576 L1407.87 65.6895 Q1405.32 69.8214 1401.51 71.8063 Q1397.7 73.7508 1392.19 73.7508 Q1385.22 73.7508 1381.09 69.8619 Q1377 65.9325 1377 59.3701 Q1377 51.7138 1382.1 47.825 Q1387.25 43.9361 1397.42 43.9361 L1407.87 43.9361 L1407.87 43.2069 Q1407.87 38.0623 1404.46 35.2672 Q1401.1 32.4315 1394.99 32.4315 Q1391.1 32.4315 1387.41 33.3632 Q1383.72 34.295 1380.32 36.1584 L1380.32 29.2718 Q1384.41 27.692 1388.26 26.9223 Q1392.11 26.1121 1395.75 26.1121 Q1405.6 26.1121 1410.46 31.2163 Q1415.32 36.3204 1415.32 46.6907 Z" fill="#000000" fill-rule="nonzero" fill-opacity="1"></path><path clip-path="url(#clip790)" d="M1468.39 45.1919 L1468.39 72.576 L1460.93 72.576 L1460.93 45.4349 Q1460.93 38.994 1458.42 35.7938 Q1455.91 32.5936 1450.89 32.5936 Q1444.85 32.5936 1441.37 36.4419 Q1437.88 40.2903 1437.88 46.9338 L1437.88 72.576 L1430.39 72.576 L1430.39 27.2059 L1437.88 27.2059 L1437.88 34.2544 Q1440.56 30.163 1444.16 28.1376 Q1447.81 26.1121 1452.55 26.1121 Q1460.37 26.1121 1464.38 30.9732 Q1468.39 35.7938 1468.39 45.1919 Z" fill="#000000" fill-rule="nonzero" fill-opacity="1"></path><path clip-path="url(#clip790)" d="M1513.11 34.0924 L1513.11 9.54393 L1520.56 9.54393 L1520.56 72.576 L1513.11 72.576 L1513.11 65.7705 Q1510.76 69.8214 1507.15 71.8063 Q1503.59 73.7508 1498.57 73.7508 Q1490.34 73.7508 1485.16 67.1883 Q1480.01 60.6258 1480.01 49.9314 Q1480.01 39.2371 1485.16 32.6746 Q1490.34 26.1121 1498.57 26.1121 Q1503.59 26.1121 1507.15 28.0971 Q1510.76 30.0415 1513.11 34.0924 M1487.71 49.9314 Q1487.71 58.1548 1491.07 62.8538 Q1494.48 67.5124 1500.39 67.5124 Q1506.3 67.5124 1509.71 62.8538 Q1513.11 58.1548 1513.11 49.9314 Q1513.11 41.7081 1509.71 37.0496 Q1506.3 32.3505 1500.39 32.3505 Q1494.48 32.3505 1491.07 37.0496 Q1487.71 41.7081 1487.71 49.9314 Z" fill="#000000" fill-rule="nonzero" fill-opacity="1"></path><path clip-path="url(#clip790)" d="M1562.61 12.096 L1573.63 12.096 L1600.45 62.6918 L1600.45 12.096 L1608.39 12.096 L1608.39 72.576 L1597.37 72.576 L1570.55 21.9802 L1570.55 72.576 L1562.61 72.576 L1562.61 12.096 Z" fill="#000000" fill-rule="nonzero" fill-opacity="1"></path><path clip-path="url(#clip790)" d="M1632.85 18.8205 L1632.85 41.5461 L1643.14 41.5461 Q1648.86 41.5461 1651.97 38.5889 Q1655.09 35.6318 1655.09 30.163 Q1655.09 24.7348 1651.97 21.7777 Q1648.86 18.8205 1643.14 18.8205 L1632.85 18.8205 M1624.67 12.096 L1643.14 12.096 Q1653.31 12.096 1658.5 16.714 Q1663.72 21.2916 1663.72 30.163 Q1663.72 39.1155 1658.5 43.6931 Q1653.31 48.2706 1643.14 48.2706 L1632.85 48.2706 L1632.85 72.576 L1624.67 72.576 L1624.67 12.096 Z" fill="#000000" fill-rule="nonzero" fill-opacity="1"></path><path clip-path="url(#clip790)" d="M1690.3 72.576 L1667.21 12.096 L1675.75 12.096 L1694.91 63.0159 L1714.12 12.096 L1722.62 12.096 L1699.57 72.576 L1690.3 72.576 Z" fill="#000000" fill-rule="nonzero" fill-opacity="1"></path><polyline clip-path="url(#clip792)" style="stroke:#009af9; stroke-linecap:round; stroke-linejoin:round; stroke-width:4; stroke-opacity:1; fill:none" points="454.731,219.683 591.776,545.723 728.821,764.999 865.866,918.62 1002.91,1029.32 1139.96,1110.52 1277,1171.46 1414.05,1217.91 1551.09,1252 1688.14,1276.47 1825.18,1294.99 1962.23,1308.94 2099.27,1319.34 2236.32,1326.97 "></polyline>
<path clip-path="url(#clip790)" d="M1985.54 329.268 L2226.81 329.268 L2226.81 225.588 L1985.54 225.588  Z" fill="#ffffff" fill-rule="evenodd" fill-opacity="1"></path>
<polyline clip-path="url(#clip790)" style="stroke:#000000; stroke-linecap:round; stroke-linejoin:round; stroke-width:4; stroke-opacity:1; fill:none" points="1985.54,329.268 2226.81,329.268 2226.81,225.588 1985.54,225.588 1985.54,329.268 "></polyline>
<polyline clip-path="url(#clip790)" style="stroke:#009af9; stroke-linecap:round; stroke-linejoin:round; stroke-width:4; stroke-opacity:1; fill:none" points="2006.52,277.428 2132.42,277.428 "></polyline>
<path clip-path="url(#clip790)" d="M2167.24 297.116 Q2165.44 301.745 2163.73 303.157 Q2162.01 304.569 2159.14 304.569 L2155.74 304.569 L2155.74 301.005 L2158.24 301.005 Q2160 301.005 2160.97 300.171 Q2161.94 299.338 2163.12 296.236 L2163.89 294.292 L2153.4 268.783 L2157.91 268.783 L2166.02 289.06 L2174.12 268.783 L2178.63 268.783 L2167.24 297.116 Z" fill="#000000" fill-rule="nonzero" fill-opacity="1"></path><path clip-path="url(#clip790)" d="M2185.92 290.773 L2193.56 290.773 L2193.56 264.408 L2185.25 266.074 L2185.25 261.815 L2193.52 260.148 L2198.19 260.148 L2198.19 290.773 L2205.83 290.773 L2205.83 294.708 L2185.92 294.708 L2185.92 290.773 Z" fill="#000000" fill-rule="nonzero" fill-opacity="1"></path></svg>